<svg xmlns="http://www.w3.org/2000/svg" xmlns:xlink="http://www.w3.org/1999/xlink" width="332" height="653" viewBox="0 0 332 653">
    <defs>
        <rect id="group-2-a" width="330" height="653" rx="37.712"/>
        <path id="group-2-b" d="M146,38 C146,35.790861 147.795681,34 150.006556,34 L201.993444,34 C204.206204,34 206,35.7953562 206,38 L206,38 C206,40.209139 204.204319,42 201.993444,42 L150.006556,42 C147.793796,42 146,40.2046438 146,38 L146,38 Z"/>
        <circle id="group-2-c" cx="130" cy="38" r="4"/>
        <path id="group-2-d" d="M0.694127872,0.049350691 C0.297860063,0.115708097 0,0.457075042 0,0.868217795 L0,43.7530081 C0,44.1639815 0.300036001,44.505077 0.694127872,44.5717432 L0.694127872,0.049350691 Z"/>
    </defs>
    <g fill="none" fill-rule="evenodd">
        <use fill="#FFF" xlink:href="#group-2-a"/>
        <rect width="329" height="652" x=".5" y=".5" stroke="#999" rx="37.712"/>
        <circle cx="164" cy="610" r="24.5" stroke="#999"/>
        <use fill="#FFF" xlink:href="#group-2-b"/>
        <path stroke="#999" d="M146.5,38 C146.5,39.9299575 148.071396,41.5 150.006556,41.5 L201.993444,41.5 C203.929047,41.5 205.5,39.9321271 205.5,38 C205.5,36.0700425 203.928604,34.5 201.993444,34.5 L150.006556,34.5 C148.070953,34.5 146.5,36.0678729 146.5,38 Z"/>
        <g>
            <use fill="#FFF" xlink:href="#group-2-c"/>
            <circle cx="130" cy="38" r="3.5" stroke="#999"/>
        </g>
        <g transform="matrix(-1 0 0 1 331 117)">
            <use fill="#FFF" xlink:href="#group-2-d"/>
            <path stroke="#999" d="M1.19412787,-0.541339195 L1.19412787,45.1634289 L0.610730677,45.0647391 C-0.026933315,44.9568692 -0.5,44.404971 -0.5,43.7530081 L-0.5,0.868217795 C-0.5,0.2152548 -0.0281119197,-0.336667858 0.611549695,-0.443783008 L1.19412787,-0.541339195 Z"/>
            <rect width="1" height="44.546" x=".694" y=".038" fill="#FFF"/>
        </g>
    </g>
</svg>
