<svg xmlns="http://www.w3.org/2000/svg" width="57" height="19" viewBox="0 0 57 19">
    <g fill="#333" fill-rule="evenodd">
        <path d="M1.70713972,9 L7.5,9 C7.77614237,9 8,9.22385763 8,9.5 C8,9.77614237 7.77614237,10 7.5,10 L1.70710678,10 L3.76776695,12.0606602 C3.9630291,12.2559223 3.9630291,12.5725048 3.76776695,12.767767 L3.76776695,12.767767 C3.57250481,12.9630291 3.25592232,12.9630291 3.06066017,12.767767 L0.232233047,9.93933983 L0.232233047,9.93933983 C0.112678018,9.8197848 0.066324095,9.65474844 0.0931712765,9.49992532 C0.066382032,9.34514718 0.112744928,9.18018123 0.232259964,9.06066619 L0.232259964,9.06066619 L3.06066982,6.23225634 C3.25593196,6.03699419 3.57251445,6.03699419 3.7677766,6.23225634 C3.96303875,6.42751848 3.96303875,6.74410097 3.7677766,6.93936312 L1.70713972,9 Z M17.1212874,9 L15.0606505,6.93936312 C14.8653884,6.74410097 14.8653884,6.42751848 15.0606505,6.23225634 C15.2559127,6.03699419 15.5724952,6.03699419 15.7677573,6.23225634 L18.5961672,9.06066619 C18.7156822,9.18018123 18.7620451,9.34514718 18.7352558,9.49992532 C18.762103,9.65474844 18.7157491,9.8197848 18.5961941,9.93933983 L15.767767,12.767767 C15.5725048,12.9630291 15.2559223,12.9630291 15.0606602,12.767767 C14.865398,12.5725048 14.865398,12.2559223 15.0606602,12.0606602 L17.1213203,10 L11.5,10 C11.2238576,10 11,9.77614237 11,9.5 C11,9.22385763 11.2238576,9 11.5,9 L17.1212874,9 Z M9,17.1212874 L9,11.5 C9,11.2238576 9.22385763,11 9.5,11 C9.77614237,11 10,11.2238576 10,11.5 L10,17.1213203 L12.0606602,15.0606602 C12.2559223,14.865398 12.5725048,14.865398 12.767767,15.0606602 L12.767767,15.0606602 C12.9630291,15.2559223 12.9630291,15.5725048 12.767767,15.767767 L9.93933983,18.5961941 C9.8197848,18.7157491 9.65474844,18.762103 9.49992532,18.7352558 C9.34514718,18.7620451 9.18018123,18.7156822 9.06066619,18.5961672 L6.23225634,15.7677573 C6.03699419,15.5724952 6.03699419,15.2559127 6.23225634,15.0606505 C6.42751848,14.8653884 6.74410097,14.8653884 6.93936312,15.0606505 L9,17.1212874 Z M9,1.70713972 L6.93936312,3.7677766 C6.74410097,3.96303875 6.42751848,3.96303875 6.23225634,3.7677766 C6.03699419,3.57251445 6.03699419,3.25593196 6.23225634,3.06066982 L9.06066619,0.232259964 L9.06066619,0.232259964 C9.18018123,0.112744928 9.34514718,0.066382032 9.49992532,0.0931712765 C9.65474844,0.066324095 9.8197848,0.112678018 9.93933983,0.232233047 L9.93933983,0.232233047 L12.767767,3.06066017 C12.9630291,3.25592232 12.9630291,3.57250481 12.767767,3.76776695 L12.767767,3.76776695 C12.5725048,3.9630291 12.2559223,3.9630291 12.0606602,3.76776695 L10,1.70710678 L10,7.5 L10,7.5 C10,7.77614237 9.77614237,8 9.5,8 L9.5,8 C9.22385763,8 9,7.77614237 9,7.5 L9,1.70713972 Z"/>
        <path d="M9,9 L0.5,9 L0.5,9 C0.223857625,9 -3.38176876e-17,9.22385763 0,9.5 C3.38176876e-17,9.77614237 0.223857625,10 0.5,10 L9,10 L9,18.5 C9,18.7761424 9.22385763,19 9.5,19 C9.77614237,19 10,18.7761424 10,18.5 L10,10 L18.5,10 C18.7761424,10 19,9.77614237 19,9.5 C19,9.22385763 18.7761424,9 18.5,9 L10,9 L10,0.5 C10,0.223857625 9.77614237,3.41009787e-13 9.5,3.41060513e-13 C9.22385763,3.4111124e-13 9,0.223857625 9,0.5 L9,0.5 L9,9 Z" transform="rotate(45 19 32.435)"/>
        <path d="M9,9 L0.5,9 L0.5,9 C0.223857625,9 -3.38176876e-17,9.22385763 0,9.5 C3.38176876e-17,9.77614237 0.223857625,10 0.5,10 L9,10 L9,18.5 C9,18.7761424 9.22385763,19 9.5,19 C9.77614237,19 10,18.7761424 10,18.5 L10,10 L18.5,10 C18.7761424,10 19,9.77614237 19,9.5 C19,9.22385763 18.7761424,9 18.5,9 L10,9 L10,0.5 C10,0.223857625 9.77614237,-5.07265313e-17 9.5,0 C9.22385763,5.07265313e-17 9,0.223857625 9,0.5 L9,0.5 L9,9 Z" transform="translate(38)"/>
    </g>
</svg>
