<svg xmlns="http://www.w3.org/2000/svg" xmlns:xlink="http://www.w3.org/1999/xlink" width="160" height="80" viewBox="0 0 160 80">
    <defs>
        <linearGradient id="icon_hint-b" x1="50%" x2="50%" y1="100%" y2="0%">
            <stop offset="0%" stop-color="#FFF" stop-opacity="0"/>
            <stop offset="100%" stop-opacity=".4"/>
        </linearGradient>
        <circle id="icon_hint-a" cx="40" cy="40" r="40"/>
        <circle id="icon_hint-c" cx="40" cy="40" r="40"/>
    </defs>
    <g fill="none" fill-rule="evenodd">
        <g fill-rule="nonzero">
            <use fill="#FF8C00" fill-rule="evenodd" xlink:href="#icon_hint-a"/>
            <use fill="url(#icon_hint-b)" fill-rule="evenodd" style="mix-blend-mode:soft-light" xlink:href="#icon_hint-a"/>
        </g>
        <path fill="#FFF" d="M36.904,47.337 L35.028,20.819 C35.029,18.158 37.249,16 39.988,16 C42.727,16 44.947,18.157 44.948,20.82 L43.073,47.337 C43.074,52.831 36.903,52.831 36.904,47.337 Z M40,55.037 C42.761,55.037 45,57.213 45,59.897 C45,62.58 42.761,64.756 40,64.756 C37.239,64.756 35,62.58 35,59.897 C35,57.213 37.239,55.037 40,55.037 Z"/>
        <g fill-rule="nonzero" transform="translate(80)">
            <use fill="#2FB746" fill-rule="evenodd" xlink:href="#icon_hint-c"/>
            <use fill="url(#icon_hint-b)" fill-rule="evenodd" style="mix-blend-mode:soft-light" xlink:href="#icon_hint-c"/>
            <path fill="#FFF" d="M33.1401046,46.3381409 C34.07356,45.1995077 35.1469142,43.9319326 36.3452134,42.5675115 C39.7682427,38.6699431 43.5101954,34.7723555 47.4532058,31.1308651 C51.6427237,27.2617175 55.8188621,23.9092917 59.9164173,21.2247657 C60.5253395,20.8258284 61.339738,20.9711313 61.7731259,21.5560348 L63.1144362,23.3662771 C63.5687326,23.9793988 63.4363131,24.8452654 62.8195346,25.2945846 C62.766542,25.3331894 62.6564261,25.4152137 62.493005,25.5398029 C62.2158986,25.7510636 61.8930947,26.0031988 61.5284116,26.2953502 C60.4811983,27.1342836 59.31208,28.1231211 58.0516064,29.2549417 C54.4454428,32.493034 50.8378797,36.221393 47.4729387,40.3831893 C42.9447726,45.9836752 39.216437,51.9331837 36.5608925,58.1644037 C36.1856451,59.0449196 35.0475463,59.2814702 34.3525101,58.6234099 L17.4292866,42.6004991 C16.8804451,42.0808559 16.8544328,41.2154739 17.3710719,40.6638037 L19.9442445,37.9161555 C20.4359497,37.3911099 21.2494138,37.3342546 21.8093754,37.7857963 L32.8523139,46.6905975 C32.9444429,46.5772956 33.0403908,46.4597723 33.1401046,46.3381409 Z"/>
        </g>
    </g>
</svg>
