<svg xmlns="http://www.w3.org/2000/svg" width="16" height="16" viewBox="0 0 16 16">
    <g fill="#999" fill-rule="evenodd">
        <path fill-rule="nonzero" d="M2,0 L14,0 C15.1045695,0 16,0.8954305 16,2 L16,14 C16,15.1045695 15.1045695,16 14,16 L2,16 C0.8954305,16 0,15.1045695 0,14 L0,2 C0,0.8954305 0.8954305,0 2,0 Z M2,1 C1.44771525,1 1,1.44771525 1,2 L1,14 C1,14.5522847 1.44771525,15 2,15 L14,15 C14.5522847,15 15,14.5522847 15,14 L15,2 C15,1.44771525 14.5522847,1 14,1 L2,1 Z"/>
        <path d="M1,4 L16,4 L16,5 L1,5 L1,4 Z M4,7 L7,7 L7,9 L4,9 L4,7 Z M9,7 L12,7 L12,9 L9,9 L9,7 Z M4,11 L7,11 L7,13 L4,13 L4,11 Z M9,11 L12,11 L12,13 L9,13 L9,11 Z"/>
    </g>
</svg>
