<svg xmlns="http://www.w3.org/2000/svg" width="34" height="34" viewBox="0 0 34 34">
    <path fill="#999" fill-rule="evenodd" d="M132.003943,16.0232921 C130.951319,17.3314083 129.697122,18.4704624 128.288515,19.3932923 L129.932084,22.2400373 C130.20568,22.7139191 130.043075,23.3200086 129.561447,23.5980762 C129.083155,23.8742186 128.469934,23.7075202 128.200033,23.2400373 L126.550274,20.38257 C124.713953,21.2803338 122.680286,21.8367743 120.531908,21.969258 L120.531908,25.009222 C120.531908,25.5564136 120.088043,26 119.531908,26 C118.979623,26 118.531908,25.5490248 118.531908,25.009222 L118.531908,21.969258 C116.38353,21.8367743 114.349863,21.2803338 112.513542,20.38257 L110.863783,23.2400373 C110.590187,23.7139191 109.983996,23.8761438 109.502368,23.5980762 C109.024076,23.3219338 108.861831,22.7075202 109.131732,22.2400373 L110.775301,19.3932923 C109.366694,18.4704624 108.112497,17.3314083 107.059873,16.0232921 L104.635542,18.0575475 C104.216369,18.4092754 103.591251,18.3543871 103.233775,17.9283628 C102.878773,17.5052882 102.936454,16.8724371 103.349967,16.5254586 L105.901876,14.3841525 C104.730081,12.4832293 103.944827,10.3186511 103.655695,8 L105.673686,8 C106.644145,14.7845883 112.478964,20 119.531908,20 C126.584852,20 132.419671,14.7845883 133.39013,8 L135.40812,8 C135.118989,10.3186511 134.333734,12.4832293 133.16194,14.3841525 L135.713849,16.5254586 C136.127362,16.8724371 136.185043,17.5052882 135.830041,17.9283628 C135.472564,18.3543871 134.847447,18.4092754 134.428274,18.0575475 L132.003943,16.0232921 Z" transform="translate(-102)"/>
</svg>
