<svg xmlns="http://www.w3.org/2000/svg" xmlns:xlink="http://www.w3.org/1999/xlink" width="160" height="80" viewBox="0 0 160 80">
    <defs>
        <path id="icon_hint_realname-a" d="M8,1.34115809e-16 L72,1.34115809e-16 L72,0 C76.418278,-8.11633746e-16 80,3.581722 80,8 L80,52 L80,52 C80,56.418278 76.418278,60 72,60 L8,60 L8,60 C3.581722,60 5.41083001e-16,56.418278 0,52 L0,8 L0,8 C-5.41083001e-16,3.581722 3.581722,8.11633746e-16 8,0 Z"/>
        <path id="icon_hint_realname-b" d="M55,32 C59.9705627,32 64,27.9705627 64,23 C64,18.0294372 59.9705627,14 55,14 C50.0294373,14 46,18.0294372 46,23 C46,27.9705627 50.0294373,32 55,32 L55,32 Z"/>
    </defs>
    <g fill="none" fill-rule="evenodd">
        <path fill="#37A2F4" fill-rule="nonzero" d="M39.9541364,79.9999927 C22.9754855,79.980559 7.85926112,69.243262 2.24894784,53.2173917 C-3.36136543,37.1915214 1.75694028,19.369745 15.0158053,8.76360345 C28.2746703,-1.84253813 46.7844665,-2.92154959 61.1857575,6.07216875 C75.5870485,15.0658871 82.7412265,32.1722503 79.0307978,48.7414647 C78.7896372,49.8124421 77.9954684,50.6734011 76.9474471,51.0000268 C75.8994259,51.3266524 74.7567715,51.0693225 73.9499108,50.3249707 C73.1430501,49.5806189 72.7945645,48.46233 73.0357252,47.3913526 C76.366446,32.5078586 69.3348377,17.234602 55.8618399,10.0881999 C42.3888421,2.94179776 25.8010302,5.68674576 15.3480389,16.7924161 C4.89504753,27.8980865 3.15779195,44.622413 11.1049942,57.6396384 C19.0521964,70.6568638 34.7216377,76.7529458 49.375782,72.5286096 C50.4376125,72.1951274 51.596758,72.46209 52.4057741,73.2264466 C53.2147903,73.9908033 53.5471234,75.1329863 53.2744888,76.2120991 C53.0018543,77.291212 52.1669001,78.1384499 51.0919288,78.4267689 C47.4718402,79.4726327 43.7222584,80.0022648 39.9541364,79.9999927 L39.9541364,79.9999927 Z M58.3912729,60.8924738 C57.6426812,60.8920796 56.920194,60.6173154 56.3604993,60.1201639 L36.1500111,42.24262 C35.494597,41.6622338 35.1179274,40.8297676 35.1146026,39.9542943 L35.1146026,18.5184041 C35.1146026,16.8217427 36.4899402,15.4463269 38.1865052,15.4463269 C39.8830702,15.4463269 41.2584079,16.8217427 41.2584079,18.5184041 L41.2584079,38.5412533 L60.4277671,55.4863045 C61.3832549,56.3326028 61.7159113,57.6816013 61.2634362,58.8751358 C60.8109611,60.0686703 59.6676335,60.8580521 58.3912729,60.8581489 L58.3912729,60.8924738 Z M63.4481853,67.591547 C63.4452312,69.911961 65.082092,71.9111675 67.3573513,72.3660704 C69.6326105,72.8209733 71.9122612,71.6048125 72.8016339,69.4616243 C73.6910065,67.318436 72.942275,64.8454253 71.0135064,63.5555575 C69.0847379,62.2656897 66.5133888,62.51839 64.8725871,64.1590586 C63.9673212,65.0729892 63.456002,66.3051538 63.4481853,67.591547 L63.4481853,67.591547 Z"/>
        <g transform="translate(80 10)">
            <use fill="#FFF" xlink:href="#icon_hint_realname-a"/>
            <path stroke="#37A2F4" stroke-width="4" d="M8,2 C4.6862915,2 2,4.6862915 2,8 L2,52 C2,55.3137085 4.6862915,58 8,58 L72,58 C75.3137085,58 78,55.3137085 78,52 L78,8 C78,4.6862915 75.3137085,2 72,2 L8,2 Z"/>
            <g fill-rule="nonzero">
                <use fill="#FFF" fill-rule="evenodd" xlink:href="#icon_hint_realname-b"/>
                <path stroke="#37A2F4" stroke-width="4" d="M55,30 C58.8659933,30 62,26.8659933 62,23 C62,19.1340067 58.8659933,16 55,16 C51.1340067,16 48,19.1340067 48,23 C48,26.8659933 51.1340067,30 55,30 Z"/>
            </g>
            <path stroke="#37A2F4" stroke-width="4" d="M67.8471036,42 C66.8850933,35.7698199 61.4995722,31 55,31 C48.5004278,31 43.1149067,35.7698199 42.1528964,42 L67.8471036,42 Z"/>
            <rect width="20" height="4" x="12" y="16" fill="#37A2F4" rx="2"/>
            <rect width="20" height="4" x="12" y="28" fill="#37A2F4" rx="2"/>
            <rect width="20" height="4" x="12" y="40" fill="#37A2F4" rx="2"/>
        </g>
    </g>
</svg>
