<svg xmlns="http://www.w3.org/2000/svg" width="120" height="174" viewBox="0 0 120 174">
    <g fill="none" fill-rule="evenodd">
        <g fill="#37A2F4" transform="translate(0 87)">
            <g transform="translate(60)">
                <path fill-rule="nonzero" d="M22.5155669,60.0239574 C21.4616468,60.0239574 20.4795848,59.8243123 19.569381,59.4250221 C18.6591772,59.025732 17.8687371,58.4826974 17.1980607,57.7959183 C16.5273842,57.1091393 15.9924399,56.310559 15.5932277,55.4001774 C15.1940155,54.4897959 14.9944094,53.5235137 14.9944094,52.5013309 C14.9944094,51.4791482 15.1940155,50.512866 15.5932277,49.6024844 C15.9924399,48.6921028 16.5273842,47.9015083 17.1980607,47.2307009 C17.8687371,46.5598935 18.6591772,46.0248446 19.569381,45.6255545 C20.4795848,45.2262643 21.4616468,45.0266192 22.5155669,45.0266192 C23.5375501,45.0266192 24.5036436,45.2262643 25.4138474,45.6255545 C26.3240512,46.0248446 27.1144913,46.5598935 27.7851678,47.2307009 C28.4558442,47.9015083 28.9907885,48.6921028 29.3900007,49.6024844 C29.7892129,50.512866 29.988819,51.4791482 29.988819,52.5013309 C29.988819,53.5235137 29.7892129,54.4897959 29.3900007,55.4001774 C28.9907885,56.310559 28.4558442,57.1091393 27.7851678,57.7959183 C27.1144913,58.4826974 26.3240512,59.025732 25.4138474,59.4250221 C24.5036436,59.8243123 23.5375501,60.0239574 22.5155669,60.0239574 Z M59.9776379,87 L0,87 L0,33 L59.9776379,33 L59.9776379,38.9893523 L59.9776379,87 Z M53.9894552,38.9893523 L6.03608815,38.9893523 L6.03608815,76.0275067 C6.61095371,75.1969831 7.2496932,74.3664596 7.95230663,73.5359361 C8.65492005,72.7054126 9.38947046,71.9547471 10.1559578,71.2839397 C10.9224452,70.6131322 11.7128853,70.0621118 12.5272782,69.6308784 C13.3416711,69.199645 14.1640482,68.9840284 14.9944095,68.9840284 C15.9844557,68.9840284 16.8387697,69.0559006 17.5573516,69.1996451 C18.2759335,69.3433895 18.914673,69.527063 19.4735701,69.7506655 C20.0324672,69.974268 20.551443,70.2218279 21.0304976,70.4933452 C21.5095522,70.7648625 22.028528,71.0124223 22.5874251,71.2360248 C23.1463222,71.4596273 23.7770774,71.6433008 24.4796908,71.7870453 C25.1823042,71.9307897 26.028634,72.0026619 27.0186803,72.0026619 C28.0087266,72.0026619 28.8630406,71.7071872 29.5816225,71.1162378 C30.3002043,70.5252884 30.9628966,69.7826087 31.5696991,68.8881988 C32.1765017,67.9937888 32.7833042,67.0354925 33.3901067,66.0133097 C33.9969091,64.9911269 34.6835541,64.0328306 35.4500415,63.1384206 C36.216529,62.2440107 37.1267327,61.501331 38.1806528,60.9103816 C39.2345729,60.3194321 40.5120519,60.0239574 42.0130898,60.0239574 C43.2905687,60.0239574 44.5201422,60.4152618 45.7018103,61.1978705 C46.8834783,61.9804792 47.9773197,62.9946762 48.9833344,64.2404614 C49.9893491,65.4862467 50.9155214,66.8757764 51.7618512,68.4090506 C52.608181,69.9423248 53.3507156,71.4436558 53.9894551,72.9130435 L53.9894551,38.9893523 L53.9894552,38.9893523 Z"/>
                <rect width="60" height="6"/>
                <rect width="60" height="6" y="11"/>
                <rect width="40" height="6" y="22"/>
            </g>
            <rect width="60" height="6" y="59"/>
            <rect width="60" height="6" y="70"/>
            <rect width="40" height="6" y="81"/>
            <path fill-rule="nonzero" d="M22.5155669,27.0239574 C21.4616468,27.0239574 20.4795848,26.8243123 19.569381,26.4250221 C18.6591772,26.025732 17.8687371,25.4826974 17.1980607,24.7959183 C16.5273842,24.1091393 15.9924399,23.310559 15.5932277,22.4001774 C15.1940155,21.4897959 14.9944094,20.5235137 14.9944094,19.5013309 C14.9944094,18.4791482 15.1940155,17.512866 15.5932277,16.6024844 C15.9924399,15.6921028 16.5273842,14.9015083 17.1980607,14.2307009 C17.8687371,13.5598935 18.6591772,13.0248446 19.569381,12.6255545 C20.4795848,12.2262643 21.4616468,12.0266192 22.5155669,12.0266192 C23.5375501,12.0266192 24.5036436,12.2262643 25.4138474,12.6255545 C26.3240512,13.0248446 27.1144913,13.5598935 27.7851678,14.2307009 C28.4558442,14.9015083 28.9907885,15.6921028 29.3900007,16.6024844 C29.7892129,17.512866 29.988819,18.4791482 29.988819,19.5013309 C29.988819,20.5235137 29.7892129,21.4897959 29.3900007,22.4001774 C28.9907885,23.310559 28.4558442,24.1091393 27.7851678,24.7959183 C27.1144913,25.4826974 26.3240512,26.025732 25.4138474,26.4250221 C24.5036436,26.8243123 23.5375501,27.0239574 22.5155669,27.0239574 Z M59.9776379,54 L0,54 L0,0 L59.9776379,0 L59.9776379,5.98935226 L59.9776379,54 Z M53.9894552,5.98935226 L6.03608815,5.98935226 L6.03608815,43.0275067 C6.61095371,42.1969831 7.2496932,41.3664596 7.95230663,40.5359361 C8.65492005,39.7054126 9.38947046,38.9547471 10.1559578,38.2839397 C10.9224452,37.6131322 11.7128853,37.0621118 12.5272782,36.6308784 C13.3416711,36.199645 14.1640482,35.9840284 14.9944095,35.9840284 C15.9844557,35.9840284 16.8387697,36.0559006 17.5573516,36.1996451 C18.2759335,36.3433895 18.914673,36.527063 19.4735701,36.7506655 C20.0324672,36.974268 20.551443,37.2218279 21.0304976,37.4933452 C21.5095522,37.7648625 22.028528,38.0124223 22.5874251,38.2360248 C23.1463222,38.4596273 23.7770774,38.6433008 24.4796908,38.7870453 C25.1823042,38.9307897 26.028634,39.0026619 27.0186803,39.0026619 C28.0087266,39.0026619 28.8630406,38.7071872 29.5816225,38.1162378 C30.3002043,37.5252884 30.9628966,36.7826087 31.5696991,35.8881988 C32.1765017,34.9937888 32.7833042,34.0354925 33.3901067,33.0133097 C33.9969091,31.9911269 34.6835541,31.0328306 35.4500415,30.1384206 C36.216529,29.2440107 37.1267327,28.501331 38.1806528,27.9103816 C39.2345729,27.3194321 40.5120519,27.0239574 42.0130898,27.0239574 C43.2905687,27.0239574 44.5201422,27.4152618 45.7018103,28.1978705 C46.8834783,28.9804792 47.9773197,29.9946762 48.9833344,31.2404614 C49.9893491,32.4862467 50.9155214,33.8757764 51.7618512,35.4090506 C52.608181,36.9423248 53.3507156,38.4436558 53.9894551,39.9130435 L53.9894551,5.98935231 L53.9894552,5.98935226 Z"/>
        </g>
        <g fill="#CCC">
            <g transform="translate(60)">
                <path fill-rule="nonzero" d="M22.5155669,60.0239574 C21.4616468,60.0239574 20.4795848,59.8243123 19.569381,59.4250221 C18.6591772,59.025732 17.8687371,58.4826974 17.1980607,57.7959183 C16.5273842,57.1091393 15.9924399,56.310559 15.5932277,55.4001774 C15.1940155,54.4897959 14.9944094,53.5235137 14.9944094,52.5013309 C14.9944094,51.4791482 15.1940155,50.512866 15.5932277,49.6024844 C15.9924399,48.6921028 16.5273842,47.9015083 17.1980607,47.2307009 C17.8687371,46.5598935 18.6591772,46.0248446 19.569381,45.6255545 C20.4795848,45.2262643 21.4616468,45.0266192 22.5155669,45.0266192 C23.5375501,45.0266192 24.5036436,45.2262643 25.4138474,45.6255545 C26.3240512,46.0248446 27.1144913,46.5598935 27.7851678,47.2307009 C28.4558442,47.9015083 28.9907885,48.6921028 29.3900007,49.6024844 C29.7892129,50.512866 29.988819,51.4791482 29.988819,52.5013309 C29.988819,53.5235137 29.7892129,54.4897959 29.3900007,55.4001774 C28.9907885,56.310559 28.4558442,57.1091393 27.7851678,57.7959183 C27.1144913,58.4826974 26.3240512,59.025732 25.4138474,59.4250221 C24.5036436,59.8243123 23.5375501,60.0239574 22.5155669,60.0239574 Z M59.9776379,87 L0,87 L0,33 L59.9776379,33 L59.9776379,38.9893523 L59.9776379,87 Z M53.9894552,38.9893523 L6.03608815,38.9893523 L6.03608815,76.0275067 C6.61095371,75.1969831 7.2496932,74.3664596 7.95230663,73.5359361 C8.65492005,72.7054126 9.38947046,71.9547471 10.1559578,71.2839397 C10.9224452,70.6131322 11.7128853,70.0621118 12.5272782,69.6308784 C13.3416711,69.199645 14.1640482,68.9840284 14.9944095,68.9840284 C15.9844557,68.9840284 16.8387697,69.0559006 17.5573516,69.1996451 C18.2759335,69.3433895 18.914673,69.527063 19.4735701,69.7506655 C20.0324672,69.974268 20.551443,70.2218279 21.0304976,70.4933452 C21.5095522,70.7648625 22.028528,71.0124223 22.5874251,71.2360248 C23.1463222,71.4596273 23.7770774,71.6433008 24.4796908,71.7870453 C25.1823042,71.9307897 26.028634,72.0026619 27.0186803,72.0026619 C28.0087266,72.0026619 28.8630406,71.7071872 29.5816225,71.1162378 C30.3002043,70.5252884 30.9628966,69.7826087 31.5696991,68.8881988 C32.1765017,67.9937888 32.7833042,67.0354925 33.3901067,66.0133097 C33.9969091,64.9911269 34.6835541,64.0328306 35.4500415,63.1384206 C36.216529,62.2440107 37.1267327,61.501331 38.1806528,60.9103816 C39.2345729,60.3194321 40.5120519,60.0239574 42.0130898,60.0239574 C43.2905687,60.0239574 44.5201422,60.4152618 45.7018103,61.1978705 C46.8834783,61.9804792 47.9773197,62.9946762 48.9833344,64.2404614 C49.9893491,65.4862467 50.9155214,66.8757764 51.7618512,68.4090506 C52.608181,69.9423248 53.3507156,71.4436558 53.9894551,72.9130435 L53.9894551,38.9893523 L53.9894552,38.9893523 Z"/>
                <rect width="60" height="6"/>
                <rect width="60" height="6" y="11"/>
                <rect width="40" height="6" y="22"/>
            </g>
            <rect width="60" height="6" y="59"/>
            <rect width="60" height="6" y="70"/>
            <rect width="40" height="6" y="81"/>
            <path fill-rule="nonzero" d="M22.5155669,27.0239574 C21.4616468,27.0239574 20.4795848,26.8243123 19.569381,26.4250221 C18.6591772,26.025732 17.8687371,25.4826974 17.1980607,24.7959183 C16.5273842,24.1091393 15.9924399,23.310559 15.5932277,22.4001774 C15.1940155,21.4897959 14.9944094,20.5235137 14.9944094,19.5013309 C14.9944094,18.4791482 15.1940155,17.512866 15.5932277,16.6024844 C15.9924399,15.6921028 16.5273842,14.9015083 17.1980607,14.2307009 C17.8687371,13.5598935 18.6591772,13.0248446 19.569381,12.6255545 C20.4795848,12.2262643 21.4616468,12.0266192 22.5155669,12.0266192 C23.5375501,12.0266192 24.5036436,12.2262643 25.4138474,12.6255545 C26.3240512,13.0248446 27.1144913,13.5598935 27.7851678,14.2307009 C28.4558442,14.9015083 28.9907885,15.6921028 29.3900007,16.6024844 C29.7892129,17.512866 29.988819,18.4791482 29.988819,19.5013309 C29.988819,20.5235137 29.7892129,21.4897959 29.3900007,22.4001774 C28.9907885,23.310559 28.4558442,24.1091393 27.7851678,24.7959183 C27.1144913,25.4826974 26.3240512,26.025732 25.4138474,26.4250221 C24.5036436,26.8243123 23.5375501,27.0239574 22.5155669,27.0239574 Z M59.9776379,54 L0,54 L0,0 L59.9776379,0 L59.9776379,5.98935226 L59.9776379,54 Z M53.9894552,5.98935226 L6.03608815,5.98935226 L6.03608815,43.0275067 C6.61095371,42.1969831 7.2496932,41.3664596 7.95230663,40.5359361 C8.65492005,39.7054126 9.38947046,38.9547471 10.1559578,38.2839397 C10.9224452,37.6131322 11.7128853,37.0621118 12.5272782,36.6308784 C13.3416711,36.199645 14.1640482,35.9840284 14.9944095,35.9840284 C15.9844557,35.9840284 16.8387697,36.0559006 17.5573516,36.1996451 C18.2759335,36.3433895 18.914673,36.527063 19.4735701,36.7506655 C20.0324672,36.974268 20.551443,37.2218279 21.0304976,37.4933452 C21.5095522,37.7648625 22.028528,38.0124223 22.5874251,38.2360248 C23.1463222,38.4596273 23.7770774,38.6433008 24.4796908,38.7870453 C25.1823042,38.9307897 26.028634,39.0026619 27.0186803,39.0026619 C28.0087266,39.0026619 28.8630406,38.7071872 29.5816225,38.1162378 C30.3002043,37.5252884 30.9628966,36.7826087 31.5696991,35.8881988 C32.1765017,34.9937888 32.7833042,34.0354925 33.3901067,33.0133097 C33.9969091,31.9911269 34.6835541,31.0328306 35.4500415,30.1384206 C36.216529,29.2440107 37.1267327,28.501331 38.1806528,27.9103816 C39.2345729,27.3194321 40.5120519,27.0239574 42.0130898,27.0239574 C43.2905687,27.0239574 44.5201422,27.4152618 45.7018103,28.1978705 C46.8834783,28.9804792 47.9773197,29.9946762 48.9833344,31.2404614 C49.9893491,32.4862467 50.9155214,33.8757764 51.7618512,35.4090506 C52.608181,36.9423248 53.3507156,38.4436558 53.9894551,39.9130435 L53.9894551,5.98935231 L53.9894552,5.98935226 Z"/>
        </g>
    </g>
</svg>
