<svg xmlns="http://www.w3.org/2000/svg" xmlns:xlink="http://www.w3.org/1999/xlink" width="260" height="180" viewBox="0 0 260 180">
    <defs>
        <filter id="icon_real_name_result-a" width="114.2%" height="121.5%" x="-7.1%" y="-9.4%" filterUnits="objectBoundingBox">
            <feOffset dy="2" in="SourceAlpha" result="shadowOffsetOuter1"/>
            <feGaussianBlur in="shadowOffsetOuter1" result="shadowBlurOuter1" stdDeviation="5"/>
            <feColorMatrix in="shadowBlurOuter1" result="shadowMatrixOuter1" values="0 0 0 0 0   0 0 0 0 0   0 0 0 0 0  0 0 0 0.1 0"/>
            <feMerge>
                <feMergeNode in="shadowMatrixOuter1"/>
                <feMergeNode in="SourceGraphic"/>
            </feMerge>
        </filter>
        <circle id="icon_real_name_result-c" cx="24" cy="24" r="24"/>
        <filter id="icon_real_name_result-b" width="143.8%" height="143.8%" x="-21.9%" y="-15.6%" filterUnits="objectBoundingBox">
            <feOffset dy="3" in="SourceAlpha" result="shadowOffsetOuter1"/>
            <feGaussianBlur in="shadowOffsetOuter1" result="shadowBlurOuter1" stdDeviation="3"/>
            <feColorMatrix in="shadowBlurOuter1" values="0 0 0 0 0.0470588235   0 0 0 0 0.733333333   0 0 0 0 0.450980392  0 0 0 0.4 0"/>
        </filter>
    </defs>
    <g fill="none" fill-rule="evenodd">
        <g filter="url(#icon_real_name_result-a)" transform="translate(13 10)">
            <rect width="225" height="149" fill="#FFF" fill-rule="nonzero" rx="5"/>
            <g transform="translate(25.82 20.934)">
                <g transform="translate(120.492)">
                    <path fill="#60C9FF" d="M10.3598361,57.3834711 C-0.0147540984,64.3088926 0.682377049,73.5592066 0.48442623,78.8320826 L63.9344262,78.8320826 C63.7905738,71.9596116 62.8918033,63.4641488 52.8233607,57.3834711 C43.1286885,51.8852479 37.2946721,50.5676446 31.5737705,50.4974545 C25.7188525,50.4186446 19.9856557,51.7190083 10.3598361,57.3834711 Z"/>
                    <path fill="#FFDAB7" d="M23.9028689,30.1238595 L38.4,30.1238595 L38.4,50.7437355 C38.4,57.7036364 23.9028689,58.5015868 23.9028689,50.7437355 L23.9028689,30.1238595 Z"/>
                    <path fill="#FFEAD3" d="M31.1508197,7.93394215 C61.8540984,7.93394215 49.4077869,48.6183306 31.1508197,48.6183306 C12.8938525,48.6183306 0.448770492,7.93394215 31.1508197,7.93394215 Z"/>
                    <path fill="#C2A095" d="M47.7209016,24.5049587 C49.3954918,30.6447438 50.6790984,30.6065702 50.6790984,25.439595 C50.6790984,19.1434215 49.6389344,0.584917355 31.507377,0.584917355 C23.4983607,0.584917355 16.8135246,2.83838843 13.4741803,7.81203306 C12.7892784,9.08352659 12.6499217,10.5792556 13.0881148,11.9557107 C10.9315574,16.3013388 11.3040984,20.8218264 11.2696721,24.5862314 C11.1885246,33.3452149 14.1381148,31.1545455 14.8918033,24.6194793 C16.6647541,9.22691736 23.9483607,12.3559174 30.602459,12.2808017 C41.779918,12.160124 43.4717213,8.91906612 47.7209016,24.5049587 Z"/>
                    <path fill="#FFEAD3" d="M50.8807377,21.656719 C51.9983607,21.903 52.4372951,24.1626281 51.8643443,26.7054793 C51.2913934,29.2483306 49.9155738,31.1139091 48.7979508,30.8700909 C47.6803279,30.6262727 47.2413934,28.3641818 47.8143443,25.8213306 C48.3872951,23.2784793 49.7631148,21.4116694 50.8807377,21.656719 Z M11.4418033,21.656719 C10.3241803,21.903 9.88401639,24.1626281 10.4581967,26.7054793 C11.032377,29.2483306 12.4069672,31.1139091 13.5233607,30.8700909 C14.6397541,30.6262727 15.0811475,28.3641818 14.5069672,25.8213306 C13.9327869,23.2784793 12.5594262,21.4116694 11.4418033,21.656719 Z"/>
                </g>
                <path fill="#60C9FF" d="M0.180327869,16.0661157 L26.1803279,16.0661157 L26.1803279,23.0661157 L0.180327869,23.0661157 L0.180327869,16.0661157 Z M0.180327869,37.0661157 L26.1803279,37.0661157 L26.1803279,44.0661157 L0.180327869,44.0661157 L0.180327869,37.0661157 Z M0.180327869,59.0661157 L26.1803279,59.0661157 L26.1803279,66.0661157 L0.180327869,66.0661157 L0.180327869,59.0661157 Z" opacity=".4"/>
                <rect width="42" height="7" x=".18" y="97.066" fill="#BFE9FF" fill-rule="nonzero"/>
                <path fill="#C8C8C8" d="M44.1803279,16.0661157 L76.1803279,16.0661157 L76.1803279,23.0661157 L44.1803279,23.0661157 L44.1803279,16.0661157 Z M44.1803279,37.0661157 L82.1803279,37.0661157 L82.1803279,44.0661157 L44.1803279,44.0661157 L44.1803279,37.0661157 Z M44.1803279,59.0661157 L97.1803279,59.0661157 L97.1803279,66.0661157 L44.1803279,66.0661157 L44.1803279,59.0661157 Z"/>
                <rect width="114" height="7" x="67.18" y="97.066" fill="#C8C8C8" fill-rule="nonzero"/>
            </g>
        </g>
        <g transform="translate(199 123)">
            <g fill-rule="nonzero">
                <use fill="#000" filter="url(#icon_real_name_result-b)" xlink:href="#icon_real_name_result-c"/>
                <use fill="#0CBB73" fill-rule="evenodd" xlink:href="#icon_real_name_result-c"/>
            </g>
            <path fill="#FFF" stroke="#FFF" stroke-linecap="round" stroke-linejoin="round" stroke-width="3" d="M10.8322759,25.0373793 L12.3914483,23.385931 L19.7350345,29.258069 C19.7350345,29.258069 27.5462069,19.2753103 36.4651034,13.4809655 L37.2777931,14.5692414 C37.2777931,14.5692414 26.3251034,22.4813793 21.0881379,34.6671724 L10.8322759,25.0373793 Z M36.8598621,13.3489655 C37.2323426,13.3537501 37.530879,13.6587384 37.5276995,14.031236 C37.52452,14.4037337 37.2208209,14.7035815 36.848313,14.7020071 C36.4758051,14.7004327 36.1746514,14.3980285 36.1746207,14.0255172 C36.1758232,13.8447317 36.2488524,13.6718413 36.3776179,13.5449386 C36.5063835,13.4180358 36.6803195,13.3475337 36.8611034,13.3489655 L36.8598621,13.3489655 Z M11.5944828,23.0793103 C12.2189904,23.0845566 12.7214787,23.5941859 12.7179125,24.2187054 C12.7143463,24.8432249 12.2060706,25.3470824 11.5815438,25.3451962 C10.957017,25.3433101 10.4517939,24.8363917 10.452,24.2118621 C10.4533134,23.9099567 10.5745913,23.6209573 10.7891179,23.4085263 C11.0036444,23.1960953 11.2938204,23.0776601 11.5957241,23.0793103 L11.5944828,23.0793103 Z"/>
        </g>
    </g>
</svg>
