<?xml version="1.0" encoding="UTF-8" standalone="no"?>
<svg width="195px" height="190px" viewBox="0 0 195 190" version="1.1" xmlns="http://www.w3.org/2000/svg" xmlns:xlink="http://www.w3.org/1999/xlink">
    <!-- Generator: Sketch 44.1 (41455) - http://www.bohemiancoding.com/sketch -->
    <title>Artboard</title>
    <desc>Created with Sketch.</desc>
    <defs></defs>
    <g id="Page-1" stroke="none" stroke-width="1" fill="none" fill-rule="evenodd">
        <g id="Artboard" fill-rule="nonzero" fill="#D6D6D6">
            <g id="查找文件">
                <path d="M81.3831234,165.032623 L18.3371898,165.032623 C13.2734622,165.032623 9.16859488,160.927987 9.16859488,155.864028 L9.16859488,18.3364948 C9.16859488,13.2732305 13.2732305,9.16789988 18.3371898,9.16789988 L100.853849,9.16789988 L100.853849,50.4266927 C100.853849,60.5536845 109.063815,68.7636508 119.190807,68.7636508 L155.864723,68.7636508 L155.864723,75.4810012 C159.094635,77.1643612 162.163643,79.1399035 165.033318,81.3828917 L165.033318,64.1792375 L163.690821,60.9373213 L107.10509,0 L18.3369581,0 C8.20996624,0 0,8.20950291 0,18.3364948 L0,155.864028 C0,165.991483 8.20996624,174.200986 18.3369581,174.200986 L90.2804389,174.200986 C86.9965947,171.470471 84.0138939,168.396905 81.3831234,165.032623 Z M110.022212,16.7843411 L150.157199,59.5948242 L119.190575,59.5948242 C114.126847,59.5948242 110.02198,55.4901886 110.02198,50.4266927 L110.02198,16.7843411 L110.022212,16.7843411 Z M32.0899662,123.774293 L32.0899662,132.943352 L68.937631,132.943352 C68.8216918,131.418042 68.7637338,129.888879 68.7638824,128.35917 C68.7638824,126.816515 68.8224936,125.287527 68.937631,123.774525 L32.0899662,123.774525 L32.0899662,123.774293 Z M32.0899662,77.9322456 L77.9324773,77.9322456 L77.9324773,68.7636508 L32.0899662,68.7636508 L32.0899662,77.9322456 Z M78.1328673,96.2692037 L32.0899662,96.2692037 L32.0899662,105.437335 L73.3346275,105.437335 C74.6643482,102.247555 76.2698497,99.1798778 78.1328673,96.2692037 Z M77.9324773,41.2576345 L32.0899662,41.2576345 L32.0899662,50.4266927 L77.9324773,50.4266927 L77.9324773,41.2576345 Z M128.35917,77.9322456 C100.509363,77.9322456 77.9324773,100.508668 77.9324773,128.358938 C77.9324773,156.208282 100.509363,178.785631 128.35917,178.785631 C156.208977,178.785631 178.785863,156.208282 178.785863,128.358938 C178.785863,100.508668 156.208977,77.9322456 128.35917,77.9322456 Z M128.35917,169.617268 C105.572627,169.617268 87.1008405,151.145017 87.1008405,128.358938 C87.1008405,105.572396 105.572627,87.1006088 128.35917,87.1006088 C151.145712,87.1006088 169.617499,105.572396 169.617499,128.358938 C169.617499,151.145017 151.145712,169.617268 128.35917,169.617268 Z M193.345994,181.862857 L169.483601,158 C167.491214,160.323666 165.323666,162.491214 163,164.483601 L186.862393,188.345994 C188.65293,190.136068 191.555689,190.136068 193.345994,188.345994 C195.136068,186.555458 195.136068,183.653162 193.345994,181.862857 L193.345994,181.862857 Z M96.2694354,128.358938 C96.2694354,129.918969 96.4183958,131.441469 96.633844,132.94312 L132.943352,132.94312 L132.943352,123.774062 L96.633844,123.774062 C96.4183958,125.275712 96.2694354,126.797981 96.2694354,128.358938 L96.2694354,128.358938 Z M105.921978,105.437335 L132.943352,105.437335 L132.943352,96.6336123 C131.442396,96.4181641 129.920127,96.2692037 128.35917,96.2692037 C119.62124,96.2692037 111.708731,99.7724377 105.921978,105.437335 L105.921978,105.437335 Z" id="Shape"></path>
            </g>
        </g>
    </g>
</svg>